<svg width="500" height="500" viewBox="0 0 500 500" fill="none" xmlns="http://www.w3.org/2000/svg">
<path d="M250 467.14C376.749 467.14 479.5 422.207 479.5 366.78C479.5 311.353 376.749 266.42 250 266.42C123.251 266.42 20.5 311.353 20.5 366.78C20.5 422.207 123.251 467.14 250 467.14Z" fill="#FAFAFA"/>
<path d="M399.99 390.21C427.14 390.21 449.15 379.72 449.15 366.78C449.15 353.84 427.14 343.35 399.99 343.35C372.84 343.35 350.83 353.84 350.83 366.78C350.83 379.72 372.84 390.21 399.99 390.21Z" fill="#EBEBEB"/>
<path d="M94.6499 341.06C94.6499 341.06 95.6499 321.89 86.0999 308.36C76.5499 294.83 64.5599 294.55 59.7499 296.48C54.9399 298.41 51.2699 304.82 58.7499 310.32C66.2299 315.82 82.1399 326.93 84.1499 335.73L94.6499 341.06Z" fill="#00C35A"/>
<path opacity="0.15" d="M94.6499 341.06C94.6499 341.06 95.6499 321.89 86.0999 308.36C76.5499 294.83 64.5599 294.55 59.7499 296.48C54.9399 298.41 51.2699 304.82 58.7499 310.32C66.2299 315.82 82.1399 326.93 84.1499 335.73L94.6499 341.06Z" fill="black"/>
<path d="M91.16 337.25C91.0447 337.25 90.933 337.21 90.8437 337.137C90.7544 337.064 90.693 336.963 90.67 336.85C85.37 310.7 69.88 303.38 63.47 301.44C63.3427 301.403 63.2353 301.317 63.1716 301.2C63.1078 301.084 63.0929 300.947 63.13 300.82C63.1714 300.694 63.2603 300.589 63.378 300.527C63.4956 300.465 63.6327 300.452 63.76 300.49C70.34 302.49 86.24 309.97 91.65 336.65C91.6645 336.714 91.6659 336.781 91.654 336.846C91.6421 336.911 91.6172 336.973 91.5808 337.028C91.5444 337.083 91.4972 337.13 91.442 337.167C91.3869 337.203 91.325 337.228 91.26 337.24L91.16 337.25Z" fill="white"/>
<path d="M85.73 330C83.62 323.67 80.84 320.66 72.03 321.33C63.22 322 64.51 321.89 54.09 318.2C43.67 314.51 35.89 318.2 34.74 322.26C33.49 326.64 42.02 329.39 48.25 332.88C54.48 336.37 58.6 340.46 56.52 346.16C54.74 351.05 55.19 355.36 62.74 357.88C69.46 360.12 77.14 356.82 79.37 363.64C80.64 367.53 86.68 372.19 92.9 369.24C104.03 359.91 102.29 347.14 96.49 338.31C93.94 334.43 87 333.81 85.73 330Z" fill="#00C35A"/>
<path d="M91.9199 358.28C91.8156 358.281 91.7138 358.248 91.6292 358.187C91.5447 358.126 91.4819 358.039 91.4499 357.94C84.8899 339.26 53.9999 323.05 42.7099 321.22C42.5796 321.196 42.4639 321.121 42.3874 321.013C42.3108 320.905 42.2795 320.771 42.2999 320.64C42.3096 320.575 42.3322 320.513 42.3663 320.457C42.4004 320.401 42.4453 320.353 42.4984 320.315C42.5515 320.277 42.6118 320.249 42.6756 320.235C42.7394 320.22 42.8055 320.219 42.8699 320.23C54.3299 322.1 85.7099 338.59 92.3899 357.61C92.435 357.735 92.4287 357.872 92.3724 357.992C92.3162 358.112 92.2146 358.205 92.0899 358.25L91.9199 358.28Z" fill="white"/>
<path d="M64.22 348.12C64.1436 348.119 64.0683 348.102 63.9992 348.069C63.9302 348.036 63.869 347.989 63.82 347.93C63.7419 347.824 63.7076 347.692 63.7244 347.562C63.7412 347.431 63.8077 347.313 63.91 347.23C68.9103 343.759 74.8243 341.842 80.91 341.72C81.0426 341.72 81.1698 341.773 81.2636 341.866C81.3573 341.96 81.41 342.087 81.41 342.22C81.41 342.353 81.3573 342.48 81.2636 342.574C81.1698 342.667 81.0426 342.72 80.91 342.72C75.0565 342.872 69.3702 344.705 64.53 348C64.4434 348.074 64.334 348.117 64.22 348.12Z" fill="white"/>
<path d="M284.74 71.21V253.25L99.8099 360.01L103.98 368.55L284.74 264.2L292.82 264.95V71.99L284.74 71.21Z" fill="#F0F0F0"/>
<path d="M247.57 171.42L249.08 169.31L239.53 163.79H239.46C238.757 163.385 237.927 163.263 237.137 163.449C236.348 163.635 235.659 164.114 235.21 164.79L208.87 205.34L181.58 181.71L182.71 180.01L173.25 174.55C172.542 174.124 171.697 173.991 170.893 174.178C170.088 174.364 169.388 174.856 168.94 175.55L99.8199 279.26V353.53L109.3 359L280 255V202.61L247.57 171.42Z" fill="#F0F0F0"/>
<path d="M109.3 359V284.74L178.41 181C178.66 180.622 178.989 180.301 179.373 180.059C179.757 179.818 180.188 179.661 180.638 179.6C181.087 179.538 181.545 179.573 181.98 179.703C182.415 179.832 182.817 180.053 183.16 180.35L218.35 210.82L244.69 170.27C244.947 169.875 245.288 169.542 245.689 169.294C246.09 169.047 246.54 168.89 247.008 168.837C247.476 168.783 247.95 168.834 248.397 168.985C248.843 169.136 249.25 169.383 249.59 169.71L289.47 208.09V251.85C289.47 252.804 289.219 253.74 288.744 254.567C288.268 255.393 287.584 256.081 286.76 256.56L109.3 359Z" fill="#FAFAFA"/>
<path d="M218.35 210.82L232.58 223.14L220.13 208.09L218.35 210.82Z" fill="#F0F0F0"/>
<path d="M298.93 68.24C298.921 68.1349 298.9 68.031 298.87 67.93C298.73 67.1886 298.442 66.4831 298.023 65.8559C297.603 65.2287 297.062 64.6926 296.43 64.28L292 61.72C291.216 61.3205 290.349 61.1122 289.47 61.1122C288.59 61.1122 287.723 61.3205 286.94 61.72L92.87 173.77C92.1237 174.242 91.5054 174.892 91.07 175.66C90.6205 176.415 90.3694 177.272 90.34 178.15V369.41C90.3877 370.288 90.6416 371.142 91.0812 371.903C91.5208 372.664 92.1336 373.31 92.87 373.79L97.29 376.35C97.9778 376.696 98.7293 376.898 99.4981 376.943C100.267 376.987 101.037 376.874 101.76 376.61L101.94 376.54C102.083 376.491 102.22 376.428 102.35 376.35L158.5 343.93L296.43 264.3C297.165 263.818 297.776 263.171 298.216 262.411C298.655 261.65 298.91 260.797 298.96 259.92V68.65C299 68.51 298.94 68.37 298.93 68.24ZM292.82 256.56C292.772 257.439 292.517 258.293 292.075 259.055C291.634 259.816 291.019 260.462 290.28 260.94L157 337.5L107.09 366.73C105.7 367.53 104.56 366.88 104.56 365.27V186.36C104.59 185.484 104.845 184.629 105.3 183.88C105.715 183.1 106.333 182.446 107.09 181.99L290.28 76.2C291.69 75.38 292.82 76.03 292.82 77.65V256.56Z" fill="white"/>
<path d="M102.35 376.35C102.22 376.428 102.083 376.491 101.94 376.54L101.76 376.61C101.037 376.874 100.267 376.987 99.4981 376.943C98.7293 376.898 97.9778 376.696 97.29 376.35L92.87 373.79C92.1336 373.31 91.5208 372.664 91.0812 371.903C90.6416 371.141 90.3877 370.288 90.34 369.41V178.15C90.3694 177.272 90.6205 176.415 91.07 175.66L100.55 181.13C102.09 182.02 103.68 182.93 105.3 183.88C104.845 184.629 104.59 185.484 104.56 186.36V365.27C104.56 366.88 105.7 367.53 107.09 366.73L102.35 376.35Z" fill="#F0F0F0"/>
<path d="M298.93 68.24C298.921 68.1349 298.9 68.031 298.87 67.93C298.57 66.87 297.59 66.52 296.43 67.19L102.35 179.26C101.607 179.732 100.989 180.375 100.547 181.135C100.105 181.896 99.8523 182.751 99.8099 183.63V374.89C99.8099 376.26 100.64 376.94 101.75 376.61L101.93 376.54C102.073 376.491 102.21 376.428 102.34 376.35L296.42 264.35C297.155 263.868 297.766 263.221 298.206 262.461C298.645 261.7 298.9 260.847 298.95 259.97V68.65C299 68.51 298.94 68.37 298.93 68.24ZM292.82 256.56C292.772 257.439 292.517 258.293 292.075 259.055C291.634 259.816 291.019 260.462 290.28 260.94L107.09 366.73C105.7 367.53 104.56 366.88 104.56 365.27V186.36C104.59 185.484 104.845 184.629 105.3 183.88C105.714 183.1 106.333 182.446 107.09 181.99L290.28 76.2C291.69 75.38 292.82 76.03 292.82 77.65V256.56Z" fill="#FAFAFA"/>
<path d="M265.07 125.2L269.86 117.06L261.66 112.28C259.25 110.9 255.93 111.1 252.27 113.22C244.93 117.46 238.97 127.77 238.97 136.22C238.97 140.4 240.43 143.35 242.77 144.76H242.84L250.74 149.35L255.32 141.59C260.207 137.283 263.617 131.55 265.07 125.2V125.2Z" fill="#F0F0F0"/>
<path d="M269.701 138.67C274.892 129.678 274.894 119.96 269.704 116.964C264.515 113.968 256.099 118.828 250.908 127.82C245.716 136.812 245.715 146.53 250.904 149.526C256.094 152.522 264.509 147.662 269.701 138.67Z" fill="#FAFAFA"/>
<path d="M307.74 84.21V266.25L122.81 373.01L126.98 381.55L307.74 277.2L315.82 277.95V84.99L307.74 84.21Z" fill="#EBEBEB"/>
<path d="M270.57 184.42L272.08 182.31L262.53 176.79H262.46C261.757 176.385 260.927 176.263 260.137 176.449C259.348 176.635 258.658 177.114 258.21 177.79L231.87 218.34L204.58 194.71L205.71 193.01L196.25 187.55C195.542 187.124 194.697 186.991 193.893 187.178C193.088 187.364 192.388 187.856 191.94 188.55L122.82 292.26V366.53L132.3 372L303 268V215.61L270.57 184.42Z" fill="#EBEBEB"/>
<path d="M132.3 372V297.74L201.41 194C201.66 193.622 201.989 193.301 202.373 193.059C202.757 192.818 203.188 192.661 203.638 192.6C204.087 192.538 204.545 192.573 204.98 192.703C205.415 192.832 205.817 193.053 206.16 193.35L241.35 223.82L267.69 183.27C267.947 182.875 268.288 182.542 268.689 182.294C269.09 182.047 269.54 181.89 270.008 181.837C270.476 181.783 270.95 181.834 271.397 181.985C271.843 182.136 272.25 182.383 272.59 182.71L312.47 221.09V264.85C312.47 265.804 312.219 266.74 311.744 267.567C311.268 268.393 310.584 269.081 309.76 269.56L132.3 372Z" fill="#F5F5F5"/>
<path d="M241.35 223.82L255.58 236.14L243.13 221.09L241.35 223.82Z" fill="#EBEBEB"/>
<path d="M321.93 81.24C321.921 81.1349 321.9 81.031 321.87 80.93C321.73 80.1886 321.442 79.4831 321.023 78.8559C320.603 78.2287 320.062 77.6926 319.43 77.28L315 74.72C314.216 74.3205 313.349 74.1122 312.47 74.1122C311.59 74.1122 310.723 74.3205 309.94 74.72L115.87 186.77C115.124 187.242 114.505 187.892 114.07 188.66C113.621 189.415 113.369 190.272 113.34 191.15V382.41C113.388 383.288 113.642 384.142 114.081 384.903C114.521 385.664 115.134 386.31 115.87 386.79L120.29 389.35C120.978 389.696 121.729 389.898 122.498 389.943C123.267 389.987 124.037 389.874 124.76 389.61L124.94 389.54C125.083 389.491 125.22 389.428 125.35 389.35L181.5 356.93L319.43 277.3C320.165 276.818 320.776 276.171 321.216 275.411C321.655 274.65 321.91 273.797 321.96 272.92V81.65C322 81.51 321.94 81.37 321.93 81.24ZM315.82 269.56C315.772 270.439 315.517 271.293 315.075 272.055C314.634 272.816 314.019 273.462 313.28 273.94L180 350.5L130.09 379.73C128.7 380.53 127.56 379.88 127.56 378.27V199.36C127.59 198.484 127.845 197.629 128.3 196.88C128.715 196.1 129.333 195.446 130.09 194.99L313.28 89.2C314.69 88.38 315.82 89.03 315.82 90.65V269.56Z" fill="#FAFAFA"/>
<path d="M125.35 389.35C125.22 389.428 125.083 389.491 124.94 389.54L124.76 389.61C124.037 389.874 123.267 389.987 122.498 389.943C121.729 389.898 120.978 389.696 120.29 389.35L115.87 386.79C115.134 386.31 114.521 385.664 114.081 384.903C113.642 384.141 113.388 383.288 113.34 382.41V191.15C113.369 190.272 113.621 189.415 114.07 188.66L123.55 194.13C125.09 195.02 126.68 195.93 128.3 196.88C127.845 197.629 127.59 198.484 127.56 199.36V378.27C127.56 379.88 128.7 380.53 130.09 379.73L125.35 389.35Z" fill="#F0F0F0"/>
<path d="M321.93 81.24C321.921 81.1349 321.9 81.031 321.87 80.93C321.57 79.87 320.59 79.52 319.43 80.19L125.35 192.26C124.607 192.732 123.989 193.375 123.547 194.135C123.105 194.896 122.852 195.751 122.81 196.63V387.89C122.81 389.26 123.64 389.94 124.75 389.61L124.93 389.54C125.073 389.491 125.21 389.428 125.34 389.35L319.42 277.35C320.155 276.868 320.766 276.221 321.206 275.461C321.645 274.7 321.9 273.847 321.95 272.97V81.65C322 81.51 321.94 81.37 321.93 81.24ZM315.82 269.56C315.772 270.439 315.517 271.293 315.075 272.055C314.634 272.816 314.019 273.462 313.28 273.94L130.09 379.73C128.7 380.53 127.56 379.88 127.56 378.27V199.36C127.59 198.484 127.845 197.629 128.3 196.88C128.714 196.1 129.333 195.446 130.09 194.99L313.28 89.2C314.69 88.38 315.82 89.03 315.82 90.65V269.56Z" fill="#F5F5F5"/>
<path d="M288.07 138.2L292.86 130.06L284.66 125.28C282.25 123.9 278.93 124.1 275.27 126.22C267.93 130.46 261.97 140.77 261.97 149.22C261.97 153.4 263.43 156.35 265.77 157.76H265.84H265.89L273.79 162.35L278.37 154.59C283.238 150.276 286.631 144.544 288.07 138.2Z" fill="#EBEBEB"/>
<path d="M292.709 151.671C297.9 142.679 297.902 132.961 292.712 129.965C287.523 126.969 279.108 131.829 273.916 140.821C268.725 149.813 268.723 159.531 273.912 162.528C279.102 165.524 287.517 160.663 292.709 151.671Z" fill="#F5F5F5"/>
<path d="M330.74 97.21V279.25L145.81 386.01L149.99 394.55L330.74 290.2L338.82 290.95V97.99L330.74 97.21Z" fill="#E0E0E0"/>
<path d="M293.57 197.42L295.08 195.31L285.53 189.79H285.46C284.757 189.385 283.927 189.263 283.137 189.449C282.348 189.635 281.658 190.114 281.21 190.79L254.87 231.34L227.58 207.71L228.71 206.01L219.25 200.55C218.542 200.124 217.697 199.991 216.893 200.178C216.088 200.364 215.388 200.856 214.94 201.55L145.82 305.26V379.53L155.3 385L326 281V228.61L293.57 197.42Z" fill="#E6E6E6"/>
<path d="M155.3 385V310.74L224.41 207C224.66 206.622 224.989 206.301 225.373 206.059C225.757 205.818 226.188 205.661 226.638 205.6C227.087 205.538 227.545 205.573 227.98 205.703C228.415 205.832 228.817 206.053 229.16 206.35L264.35 236.82L290.69 196.27C290.947 195.875 291.288 195.542 291.689 195.294C292.09 195.047 292.54 194.89 293.008 194.837C293.476 194.783 293.95 194.834 294.397 194.985C294.843 195.136 295.25 195.383 295.59 195.71L335.47 234.09V277.85C335.47 278.804 335.219 279.74 334.744 280.567C334.268 281.393 333.584 282.081 332.76 282.56L155.3 385Z" fill="#EBEBEB"/>
<path d="M264.35 236.82L278.58 249.14L266.13 234.09L264.35 236.82Z" fill="#E6E6E6"/>
<path d="M344.93 94.24C344.921 94.1349 344.9 94.031 344.87 93.93C344.73 93.1886 344.442 92.4831 344.023 91.8559C343.603 91.2287 343.062 90.6926 342.43 90.28L338 87.72C337.216 87.3205 336.349 87.1122 335.47 87.1122C334.59 87.1122 333.723 87.3205 332.94 87.72L138.87 199.77C138.124 200.242 137.505 200.892 137.07 201.66C136.621 202.415 136.369 203.272 136.34 204.15V395.41C136.388 396.288 136.642 397.142 137.081 397.903C137.521 398.664 138.134 399.31 138.87 399.79L143.29 402.35C143.978 402.696 144.729 402.898 145.498 402.943C146.267 402.987 147.037 402.874 147.76 402.61L147.94 402.54C148.083 402.491 148.22 402.428 148.35 402.35L204.5 369.93L342.43 290.3C343.165 289.818 343.776 289.171 344.216 288.411C344.655 287.65 344.91 286.797 344.96 285.92V94.65C345 94.51 344.94 94.37 344.93 94.24ZM338.82 282.56C338.772 283.439 338.517 284.293 338.075 285.055C337.634 285.816 337.019 286.462 336.28 286.94L203 363.5L153.09 392.73C151.7 393.53 150.56 392.88 150.56 391.27V212.36C150.59 211.484 150.845 210.629 151.3 209.88C151.715 209.1 152.333 208.446 153.09 207.99L336.28 102.2C337.69 101.38 338.82 102.03 338.82 103.65V282.56Z" fill="#F0F0F0"/>
<path d="M148.35 402.35C148.22 402.428 148.083 402.491 147.94 402.54L147.76 402.61C147.037 402.874 146.267 402.987 145.498 402.943C144.729 402.898 143.978 402.696 143.29 402.35L138.87 399.79C138.134 399.31 137.521 398.664 137.081 397.903C136.642 397.141 136.388 396.288 136.34 395.41V204.15C136.369 203.272 136.621 202.415 137.07 201.66L146.55 207.13C148.09 208.02 149.68 208.93 151.3 209.88C150.845 210.629 150.59 211.484 150.56 212.36V391.27C150.56 392.88 151.7 393.53 153.09 392.73L148.35 402.35Z" fill="#E0E0E0"/>
<path d="M344.93 94.24C344.921 94.1349 344.9 94.031 344.87 93.93C344.57 92.87 343.59 92.52 342.43 93.19L148.35 205.26C147.607 205.732 146.989 206.375 146.547 207.135C146.105 207.896 145.852 208.751 145.81 209.63V400.89C145.81 402.26 146.64 402.94 147.75 402.61L147.93 402.54C148.073 402.491 148.21 402.428 148.34 402.35L342.42 290.35C343.155 289.868 343.766 289.221 344.206 288.461C344.645 287.7 344.9 286.847 344.95 285.97V94.65C345 94.51 344.94 94.37 344.93 94.24ZM338.82 282.56C338.772 283.439 338.517 284.293 338.075 285.055C337.634 285.816 337.019 286.462 336.28 286.94L153.09 392.73C151.7 393.53 150.56 392.88 150.56 391.27V212.36C150.59 211.484 150.845 210.629 151.3 209.88C151.714 209.1 152.333 208.446 153.09 207.99L336.28 102.2C337.69 101.38 338.82 102.03 338.82 103.65V282.56Z" fill="#EBEBEB"/>
<path d="M311.07 151.2L315.86 143.06L307.66 138.28C305.25 136.9 301.93 137.1 298.27 139.22C290.93 143.46 284.97 153.77 284.97 162.22C284.97 166.4 286.43 169.35 288.77 170.76H288.84H288.89L296.79 175.35L301.37 167.59C306.238 163.276 309.631 157.544 311.07 151.2Z" fill="#E6E6E6"/>
<path d="M315.707 164.673C320.899 155.681 320.9 145.963 315.711 142.966C310.521 139.97 302.106 144.831 296.915 153.823C291.723 162.815 291.721 172.533 296.911 175.529C302.1 178.525 310.516 173.665 315.707 164.673Z" fill="#EBEBEB"/>
<path d="M354.74 111.21V293.25L169.81 400.01L173.99 408.55L354.74 304.2L362.82 304.95V111.99L354.74 111.21Z" fill="#263238"/>
<path d="M317.57 211.42L319.08 209.31L309.53 203.79H309.46C308.757 203.385 307.927 203.263 307.137 203.449C306.348 203.635 305.658 204.114 305.21 204.79L278.87 245.34L251.58 221.71L252.71 220.01L243.25 214.55C242.542 214.124 241.697 213.991 240.893 214.178C240.088 214.364 239.388 214.856 238.94 215.55L169.82 319.26V393.53L179.3 399L350 295V242.61L317.57 211.42Z" fill="#00C35A"/>
<path opacity="0.15" d="M317.57 211.42L319.08 209.31L309.53 203.79H309.46C308.757 203.385 307.927 203.263 307.137 203.449C306.348 203.635 305.658 204.114 305.21 204.79L278.87 245.34L251.58 221.71L252.71 220.01L243.25 214.55C242.542 214.124 241.697 213.991 240.893 214.178C240.088 214.364 239.388 214.856 238.94 215.55L169.82 319.26V393.53L179.3 399L350 295V242.61L317.57 211.42Z" fill="black"/>
<path d="M179.3 399V324.74L248.41 221C248.66 220.622 248.989 220.301 249.373 220.059C249.757 219.818 250.188 219.661 250.638 219.6C251.087 219.538 251.545 219.573 251.98 219.703C252.415 219.832 252.817 220.053 253.16 220.35L288.35 250.82L314.69 210.27C314.947 209.875 315.288 209.542 315.689 209.294C316.09 209.047 316.54 208.89 317.008 208.837C317.476 208.783 317.95 208.834 318.397 208.985C318.843 209.136 319.25 209.383 319.59 209.71L359.47 248.09V291.85C359.47 292.804 359.219 293.74 358.744 294.567C358.268 295.393 357.584 296.081 356.76 296.56L179.3 399Z" fill="#00C35A"/>
<path opacity="0.15" d="M288.35 250.82L302.58 263.14L290.13 248.09L288.35 250.82Z" fill="black"/>
<path d="M368.93 108.24C368.921 108.135 368.9 108.031 368.87 107.93C368.73 107.189 368.442 106.483 368.023 105.856C367.603 105.229 367.062 104.693 366.43 104.28L362 101.72C361.216 101.321 360.349 101.112 359.47 101.112C358.59 101.112 357.723 101.321 356.94 101.72L162.87 213.77C162.124 214.242 161.505 214.892 161.07 215.66C160.621 216.415 160.369 217.272 160.34 218.15V409.41C160.388 410.288 160.642 411.142 161.081 411.903C161.521 412.664 162.134 413.31 162.87 413.79L167.29 416.35C167.978 416.696 168.729 416.898 169.498 416.943C170.267 416.987 171.037 416.874 171.76 416.61L171.94 416.54C172.083 416.491 172.22 416.428 172.35 416.35L228.5 383.93L366.43 304.3C367.165 303.818 367.776 303.171 368.216 302.411C368.655 301.65 368.91 300.797 368.96 299.92V108.65C369 108.51 368.94 108.37 368.93 108.24ZM362.82 296.56C362.772 297.439 362.517 298.293 362.075 299.055C361.634 299.816 361.019 300.462 360.28 300.94L227 377.5L177.09 406.73C175.7 407.53 174.56 406.88 174.56 405.27V226.36C174.59 225.484 174.845 224.629 175.3 223.88C175.715 223.1 176.333 222.446 177.09 221.99L360.28 116.2C361.69 115.38 362.82 116.03 362.82 117.65V296.56Z" fill="#455A64"/>
<path d="M172.35 416.35C172.22 416.428 172.083 416.491 171.94 416.54L171.76 416.61C171.037 416.874 170.267 416.987 169.498 416.943C168.729 416.898 167.978 416.696 167.29 416.35L162.87 413.79C162.134 413.31 161.521 412.664 161.081 411.903C160.642 411.142 160.388 410.288 160.34 409.41V218.15C160.369 217.272 160.621 216.415 161.07 215.66L170.55 221.13C172.09 222.02 173.68 222.93 175.3 223.88C174.845 224.629 174.59 225.484 174.56 226.36V405.27C174.56 406.88 175.7 407.53 177.09 406.73L172.35 416.35Z" fill="#263238"/>
<path d="M368.93 108.24C368.921 108.135 368.9 108.031 368.87 107.93C368.57 106.87 367.59 106.52 366.43 107.19L172.35 219.26C171.607 219.732 170.989 220.375 170.547 221.135C170.105 221.896 169.852 222.751 169.81 223.63V414.89C169.81 416.26 170.64 416.94 171.75 416.61L171.93 416.54C172.073 416.491 172.21 416.428 172.34 416.35L366.42 304.35C367.155 303.868 367.766 303.221 368.206 302.461C368.645 301.7 368.9 300.847 368.95 299.97V108.65C369 108.51 368.94 108.37 368.93 108.24ZM362.82 296.56C362.772 297.439 362.517 298.293 362.075 299.055C361.634 299.816 361.019 300.462 360.28 300.94L177.09 406.73C175.7 407.53 174.56 406.88 174.56 405.27V226.36C174.59 225.484 174.845 224.629 175.3 223.88C175.714 223.1 176.333 222.446 177.09 221.99L360.28 116.2C361.69 115.38 362.82 116.03 362.82 117.65V296.56Z" fill="#37474F"/>
<path d="M335.07 165.2L339.86 157.06L331.66 152.28C329.25 150.9 325.93 151.1 322.27 153.22C314.93 157.46 308.97 167.77 308.97 176.22C308.97 180.4 310.43 183.35 312.77 184.76H312.84H312.89L320.79 189.35L325.37 181.59C330.238 177.276 333.631 171.544 335.07 165.2V165.2Z" fill="#00C35A"/>
<path opacity="0.15" d="M335.07 165.2L339.86 157.06L331.66 152.28C329.25 150.9 325.93 151.1 322.27 153.22C314.93 157.46 308.97 167.77 308.97 176.22C308.97 180.4 310.43 183.35 312.77 184.76H312.84H312.89L320.79 189.35L325.37 181.59C330.238 177.276 333.631 171.544 335.07 165.2V165.2Z" fill="black"/>
<path d="M339.702 178.668C344.893 169.676 344.895 159.958 339.705 156.962C334.516 153.966 326.1 158.826 320.909 167.818C315.717 176.81 315.716 186.528 320.905 189.524C326.095 192.521 334.51 187.66 339.702 178.668Z" fill="#00C35A"/>
<path d="M377.77 194.31L376.88 197.12L369 179.79V202.52C369 202.52 374.66 213.87 377.44 213.87C378.07 213.87 380.71 215.28 386.62 199.18L377.77 194.31Z" fill="#FFA8A7"/>
<path d="M388.24 198.7C384.2 198.861 380.216 197.714 376.88 195.43C378.299 189.322 380.103 183.31 382.28 177.43C385.87 168.22 389.93 166.81 396.28 166.92L388.24 198.7Z" fill="#00C35A"/>
<path opacity="0.1" d="M388.62 198.65C382.37 199.15 376.88 195.43 376.88 195.43C378.299 189.322 380.103 183.31 382.28 177.43C385.87 168.22 389.93 166.81 396.28 166.92L388.62 198.65Z" fill="black"/>
<path d="M424.85 350.26H416.08V365.28H424.85V350.26Z" fill="#FFA8A7"/>
<path d="M394.44 349.46L385.67 349.76L385.23 333.87L394.44 333.57V349.46Z" fill="#FFA8A7"/>
<path d="M424.83 233.51C424.83 241.89 423.35 290.63 423.35 290.63C423.56 293.04 425.88 297.33 426.06 306.01C426.32 318.61 425.23 357.78 425.23 357.78C423.714 358.522 422.054 358.923 420.366 358.956C418.678 358.989 417.004 358.652 415.46 357.97C415.46 357.97 407.72 306.51 406.15 294.04C404.78 283.16 402.45 253.6 402.45 253.6L397.69 289.12C398.707 293.696 399.074 298.392 398.78 303.07C398.37 308.83 394.99 344.54 394.99 344.54C393.461 345.401 391.761 345.917 390.01 346.05C388.26 346.183 386.502 345.93 384.86 345.31C384.86 345.31 380.42 294.41 380.32 289.12C380.21 283.12 383.24 221.52 383.24 221.52L424.83 233.51Z" fill="#37474F"/>
<path d="M421.22 172.83C421.22 172.83 424.58 175.89 424.58 183.83V201.02L424.83 233.48C412.24 240.12 396.23 240.57 382.83 230.75C382.83 230.75 383.58 188.97 383.58 182.13C383.58 181.85 383.58 181.56 383.58 181.27C384.03 171.47 393.64 164.72 403.13 167.16L411.13 169.21L419.13 171.84L421.22 172.83Z" fill="#00C35A"/>
<path d="M396.54 151.95C403.201 151.95 408.6 146.551 408.6 139.89C408.6 133.229 403.201 127.83 396.54 127.83C389.879 127.83 384.48 133.229 384.48 139.89C384.48 146.551 389.879 151.95 396.54 151.95Z" fill="#263238"/>
<path d="M417.38 148.47C417.38 148.47 415.43 157.65 414.65 159.16C414.121 160.087 413.26 160.777 412.24 161.09L412.38 154.63L417.38 148.47Z" fill="#263238"/>
<path d="M414.93 135.31C415.614 135.23 416.308 135.308 416.957 135.537C417.607 135.765 418.196 136.139 418.68 136.63C420.28 138.28 419.39 143.42 417.38 148.47L413.7 148.89L414.93 135.31Z" fill="#263238"/>
<path d="M412.6 148.89C413.34 149.33 414.39 147.89 415.3 146.96C416.21 146.03 419.18 144.71 420.66 147.83C422.14 150.95 419.36 155.22 417.02 155.96C413.02 157.22 412.38 154.63 412.38 154.63L412.08 169.63C407.08 176.06 393.16 175.52 398.96 168.8V164.38C397.161 164.665 395.338 164.759 393.52 164.66C390.52 164.2 388.69 161.86 387.79 158.66C386.35 153.5 385.79 149.34 387.02 139.2C388.37 128.09 401.29 127.98 408.27 132.37C415.25 136.76 412.6 148.89 412.6 148.89Z" fill="#FFA8A7"/>
<path d="M412.6 150.13C412.97 150.13 414.38 147.8 415.3 146.96C416.57 145.8 414.93 135.31 414.93 135.31C415.258 134.402 415.317 133.419 415.099 132.478C414.881 131.538 414.395 130.68 413.7 130.01C411.96 128.09 409.04 127.88 404.07 127.09C401.46 126.68 397.5 125.95 394.89 125.47C391.78 124.89 389.2 124.28 387 126.19C386.137 126.935 385.528 127.931 385.255 129.038C384.983 130.145 385.061 131.309 385.48 132.37C385.696 132.857 385.994 133.303 386.36 133.69C386.954 134.396 387.728 134.928 388.6 135.23C388.6 135.23 389.96 136.44 394.68 137.01C399.041 137.337 403.423 137.257 407.77 136.77C409.13 136.58 409.43 137.91 410.17 141.53C410.81 144.71 411.35 150.11 412.6 150.13Z" fill="#263238"/>
<path d="M414.92 136.13L419.39 133.73C419.247 133.43 419.044 133.162 418.795 132.942C418.545 132.723 418.253 132.556 417.937 132.452C417.621 132.348 417.288 132.31 416.956 132.339C416.625 132.368 416.303 132.463 416.01 132.62C415.412 132.952 414.964 133.503 414.761 134.156C414.558 134.81 414.615 135.517 414.92 136.13V136.13Z" fill="#263238"/>
<path d="M399 164.37C399 164.37 405.61 163.03 407.93 161.8C409.289 161.091 410.404 159.99 411.13 158.64C410.776 159.992 410.158 161.26 409.31 162.37C407.62 164.53 399 166.13 399 166.13V164.37Z" fill="#F28F8F"/>
<path d="M400.56 147.24C400.57 147.501 400.656 147.754 400.809 147.966C400.961 148.178 401.173 148.341 401.417 148.433C401.661 148.526 401.927 148.545 402.182 148.487C402.437 148.43 402.669 148.298 402.85 148.109C403.031 147.92 403.152 147.683 403.198 147.425C403.244 147.168 403.214 146.903 403.11 146.663C403.007 146.423 402.835 146.219 402.616 146.076C402.397 145.933 402.141 145.858 401.88 145.86C401.702 145.863 401.527 145.9 401.364 145.971C401.201 146.042 401.054 146.145 400.931 146.274C400.808 146.402 400.712 146.554 400.648 146.72C400.585 146.885 400.555 147.062 400.56 147.24V147.24Z" fill="#263238"/>
<path d="M402 142.23L404.84 143.8C405.043 143.411 405.087 142.958 404.964 142.537C404.841 142.116 404.56 141.759 404.18 141.54C403.993 141.437 403.786 141.373 403.573 141.352C403.361 141.331 403.146 141.354 402.942 141.418C402.738 141.483 402.55 141.588 402.388 141.728C402.226 141.867 402.094 142.038 402 142.23V142.23Z" fill="#263238"/>
<path d="M399.57 156.4L396.57 157.54C396.705 157.936 396.99 158.264 397.364 158.451C397.739 158.638 398.172 158.67 398.57 158.54C398.981 158.382 399.316 158.071 399.502 157.672C399.689 157.273 399.713 156.817 399.57 156.4V156.4Z" fill="#F28F8F"/>
<path d="M388.73 143.33L391.32 141.33C391.198 141.156 391.042 141.008 390.861 140.896C390.68 140.783 390.478 140.709 390.268 140.677C390.057 140.646 389.843 140.657 389.637 140.711C389.431 140.764 389.238 140.859 389.07 140.99C388.721 141.26 388.49 141.655 388.426 142.091C388.363 142.528 388.472 142.972 388.73 143.33V143.33Z" fill="#263238"/>
<path d="M389.53 146.86C389.526 147.037 389.557 147.213 389.621 147.377C389.686 147.542 389.782 147.693 389.905 147.82C390.027 147.947 390.174 148.049 390.336 148.119C390.498 148.19 390.673 148.227 390.85 148.23C391.125 148.242 391.398 148.171 391.633 148.026C391.868 147.882 392.054 147.67 392.168 147.419C392.281 147.167 392.317 146.888 392.27 146.616C392.223 146.344 392.095 146.092 391.904 145.894C391.712 145.695 391.466 145.558 391.196 145.501C390.926 145.444 390.645 145.469 390.39 145.573C390.134 145.677 389.916 145.855 389.762 146.085C389.609 146.314 389.528 146.584 389.53 146.86V146.86Z" fill="#263238"/>
<path d="M396.28 145.6L395.85 153.58L391.68 152.16L396.28 145.6Z" fill="#F28F8F"/>
<path d="M416.08 361V359.7C415.24 360.07 413.29 367.51 409.81 370.7C407.04 373.23 403.27 376.14 402.31 378.96C401.35 381.78 407.57 383.5 410.15 383.04C413.15 382.51 418.36 380.4 419.67 378.44C420.98 376.48 421.59 373.58 422.67 372.14C423.75 370.7 426.18 369.14 426.76 367.44C427.07 366.52 426.7 364.52 426.26 362.83C425.82 361.14 425.41 359.57 424.88 359.72V360.72C423.627 361.697 422.079 362.219 420.49 362.2C419.19 362.19 416.07 361.93 416.08 361Z" fill="#263238"/>
<path d="M385.57 347.06C385.12 347.06 384.75 347.72 383.74 348.81C382.238 350.325 380.494 351.579 378.58 352.52C375.29 354.16 368.91 356.69 366.01 358C364.21 358.81 364.29 361 366.16 362.23C368.03 363.46 372.53 364.37 377.95 363.16C380.9 362.5 384.73 359.78 387.16 359.92C389.59 360.06 394.16 360.04 395.93 358.8C397.7 357.56 397.01 354.92 396.5 352.66C395.95 350.18 395.26 346.32 394.44 346.49V347.34C393.38 348.94 387.94 349.59 385.62 348.41L385.57 347.06Z" fill="#263238"/>
<path d="M402.45 253.6C397.914 252.188 393.742 249.799 390.23 246.6C390.23 246.6 392.59 251.01 399.6 255.12L398.1 286.12L402.45 253.6Z" fill="#263238"/>
<path d="M409.16 226.5C413.16 224.43 414.55 223.7 416.36 218.5C429.36 181.06 425.07 176.16 418.59 173.83L413.7 183.76L405 214.82C399.23 219.74 387.24 225.47 380.66 226.91C379.12 227.07 377.563 226.906 376.09 226.43C373.24 225.43 371.79 225.61 368.93 224.85V228.18C366.345 228.081 363.771 227.787 361.23 227.3C355.31 226.2 353.23 228.17 358.05 234.11C360.8 237.48 366.19 238.78 374.05 237.94C378.107 237.29 382.092 236.252 385.95 234.84C396.09 231.42 403.89 229.22 409.16 226.5Z" fill="#FFA8A7"/>
<path d="M419.07 171.87C423.56 173.09 426.61 177 426.07 184.17C425.61 190.61 422.99 199.79 421.58 206.32C421.58 206.32 413.26 206.43 407.76 202.08C409.13 196.3 410.46 190.26 411.48 185.08C413.45 178.1 416.43 171.66 419.07 171.87Z" fill="#00C35A"/>
<g opacity="0.05">
<path d="M419.07 171.87C423.56 173.09 426.61 177 426.07 184.17C425.61 190.61 422.99 199.79 421.58 206.32C421.58 206.32 413.26 206.43 407.76 202.08C409.13 196.3 410.46 190.26 411.48 185.08C413.45 178.1 416.43 171.66 419.07 171.87Z" fill="black"/>
</g>
<path d="M159.68 75.82L147.68 82.73C147.743 82.2023 147.776 81.6715 147.78 81.14V77.68C147.78 71.52 143.45 69.02 138.11 72.1C135.815 73.5123 133.851 75.4017 132.35 77.64C131.48 69.89 125.35 67 118.01 71.27C110.01 75.88 103.55 87.09 103.55 96.27V101.46C103.498 103.527 103.915 105.578 104.77 107.46L94.84 113.19C93.2795 114.209 91.9811 115.58 91.0498 117.195C90.1186 118.809 89.5808 120.619 89.48 122.48C89.48 125.9 91.88 127.29 94.84 125.58L159.63 88.17C161.193 87.1538 162.495 85.7826 163.428 84.1683C164.361 82.5539 164.9 80.742 165 78.88C165.05 75.5 162.65 74.11 159.68 75.82Z" fill="#F5F5F5"/>
</svg>
