<svg width="500" height="373" viewBox="0 0 500 373" fill="none" xmlns="http://www.w3.org/2000/svg">
<path d="M500 327.4H0.393372V327.65H500V327.4Z" fill="#EBEBEB"/>
<path d="M449.939 343.49H416.845V343.74H449.939V343.49Z" fill="#EBEBEB"/>
<path d="M331.353 346.21H322.67V346.46H331.353V346.21Z" fill="#EBEBEB"/>
<path d="M415.846 334.21H396.671V334.46H415.846V334.21Z" fill="#EBEBEB"/>
<path d="M95.9681 335.89H52.8121V336.14H95.9681V335.89Z" fill="#EBEBEB"/>
<path d="M111.196 335.89H104.871V336.14H111.196V335.89Z" fill="#EBEBEB"/>
<path d="M225.366 340.11H131.76V340.36H225.366V340.11Z" fill="#EBEBEB"/>
<path d="M237.207 282.8H44.2688C42.7574 282.797 41.3087 282.195 40.2409 281.124C39.173 280.054 38.5733 278.603 38.5733 277.09V5.66C38.5865 4.15603 39.192 2.71798 40.2584 1.65822C41.3248 0.598458 42.766 0.00257639 44.2688 0H237.207C238.72 0 240.171 0.601588 241.241 1.67242C242.311 2.74325 242.912 4.19561 242.912 5.71V277.09C242.912 278.604 242.311 280.057 241.241 281.128C240.171 282.198 238.72 282.8 237.207 282.8V282.8ZM44.2688 0.200001C42.8236 0.20265 41.4385 0.779065 40.4175 1.80273C39.3965 2.82639 38.8231 4.21365 38.8231 5.66V277.09C38.8231 278.536 39.3965 279.924 40.4175 280.947C41.4385 281.971 42.8236 282.547 44.2688 282.55H237.207C238.653 282.547 240.039 281.971 241.062 280.948C242.084 279.924 242.66 278.537 242.663 277.09V5.66C242.66 4.21273 242.084 2.82549 241.062 1.80212C240.039 0.77874 238.653 0.202644 237.207 0.200001H44.2688Z" fill="#EBEBEB"/>
<path d="M453.347 282.8H260.399C258.886 282.797 257.437 282.195 256.367 281.125C255.298 280.054 254.696 278.604 254.693 277.09V5.66C254.709 4.15511 255.317 2.71708 256.385 1.65759C257.453 0.598109 258.895 0.00254829 260.399 0H453.347C454.848 0.0052045 456.286 0.602249 457.351 1.66173C458.415 2.72121 459.019 4.15775 459.032 5.66V277.09C459.032 278.601 458.434 280.05 457.368 281.121C456.303 282.191 454.856 282.795 453.347 282.8V282.8ZM260.399 0.200001C258.952 0.202644 257.566 0.77874 256.544 1.80212C255.521 2.82549 254.946 4.21273 254.943 5.66V277.09C254.946 278.537 255.521 279.924 256.544 280.948C257.566 281.971 258.952 282.547 260.399 282.55H453.347C454.793 282.547 456.179 281.971 457.202 280.948C458.224 279.924 458.8 278.537 458.802 277.09V5.66C458.8 4.21273 458.224 2.82549 457.202 1.80212C456.179 0.77874 454.793 0.202644 453.347 0.200001H260.399Z" fill="#EBEBEB"/>
<path d="M278.095 176.07L442.785 176.07V28.47L278.095 28.47V176.07Z" fill="#E6E6E6"/>
<path d="M271.15 176.07L439.538 176.07V28.47L271.15 28.47V176.07Z" fill="#F0F0F0"/>
<path d="M278.095 181.07L442.785 181.07V176.07L278.095 176.07V181.07Z" fill="#E6E6E6"/>
<path d="M259.599 181.07L427.987 181.07V176.07L259.599 176.07V181.07Z" fill="#F0F0F0"/>
<path d="M429.835 166.35V38.19L280.863 38.19V166.35H429.835Z" fill="#FAFAFA"/>
<path d="M399.899 166.36L342.914 38.19H284.6L341.585 166.36H399.899Z" fill="white"/>
<path d="M425.339 144.94C425.522 144.94 425.697 144.867 425.826 144.738C425.956 144.608 426.028 144.433 426.028 144.25V44.52C426.028 44.337 425.956 44.1615 425.826 44.0321C425.697 43.9027 425.522 43.83 425.339 43.83C425.156 43.83 424.981 43.9027 424.851 44.0321C424.722 44.1615 424.649 44.337 424.649 44.52V144.25C424.649 144.433 424.722 144.608 424.851 144.738C424.981 144.867 425.156 144.94 425.339 144.94V144.94Z" fill="#F0F0F0"/>
<path d="M319.662 166.36L262.677 38.19H242.503L299.488 166.36H319.662Z" fill="white"/>
<path d="M282.092 166.35V38.19H280.862V166.35H282.092Z" fill="#E6E6E6"/>
<g opacity="0.5">
<path d="M268.852 51.54H433.552L434.442 41.97H269.751L268.852 51.54Z" fill="#E6E6E6"/>
<path d="M268.852 67.34H433.552L434.442 57.77H269.751L268.852 67.34Z" fill="#E6E6E6"/>
<path d="M268.852 83.14H433.552L434.442 73.57H269.751L268.852 83.14Z" fill="#E6E6E6"/>
<path d="M268.852 98.94H433.552L434.442 89.37H269.751L268.852 98.94Z" fill="#E6E6E6"/>
<path d="M268.852 114.75H433.552L434.442 105.18H269.751L268.852 114.75Z" fill="#E6E6E6"/>
<path d="M268.852 130.55H433.552L434.442 120.98H269.751L268.852 130.55Z" fill="#E6E6E6"/>
</g>
<path d="M78.1921 327.4H209.429L209.429 28.48H78.1921L78.1921 327.4Z" fill="#F0F0F0"/>
<path d="M78.1921 327.4H206.841L206.841 28.48H78.1921L78.1921 327.4Z" fill="#F5F5F5"/>
<path d="M200.066 327.4L200.066 35.26L84.9668 35.26L84.9668 327.4H200.066Z" fill="#EBEBEB"/>
<path d="M116.212 169C109.687 167.2 103.162 173 96.6376 171.2C95.9187 170.898 95.3008 170.397 94.8566 169.756C94.4123 169.114 94.1601 168.36 94.1296 167.58V167.58C94.1296 166.2 95.2587 165.8 96.6376 166.17C103.162 167.97 109.687 162.17 116.212 163.97C116.933 164.268 117.553 164.766 117.999 165.406C118.446 166.046 118.699 166.8 118.73 167.58C118.73 169 117.591 169.39 116.212 169Z" fill="white"/>
<path d="M86.7354 327.4L86.7354 35.26H84.9768L84.9768 327.4H86.7354Z" fill="#E0E0E0"/>
<path d="M415.556 320.81H439.098V218.65H415.556V320.81Z" fill="#F0F0F0"/>
<path d="M318.503 327.28H434.582V320.81H318.503V327.28Z" fill="#F0F0F0"/>
<path d="M415.566 218.64H313.986V320.8H415.566V218.64Z" fill="#F5F5F5"/>
<path d="M406.304 231.22H323.239V264.72H406.304V231.22Z" fill="#F0F0F0"/>
<path d="M406.304 274.72H323.239V308.22H406.304V274.72Z" fill="#F0F0F0"/>
<path d="M355.454 234.04H374.099C375.368 234.04 376.397 233.012 376.397 231.745C376.397 230.477 375.368 229.45 374.099 229.45H355.454C354.185 229.45 353.156 230.477 353.156 231.745C353.156 233.012 354.185 234.04 355.454 234.04Z" fill="#F5F5F5"/>
<path d="M355.444 277.55H374.099C374.708 277.547 375.291 277.304 375.721 276.873C376.152 276.443 376.395 275.859 376.397 275.25V275.25C376.382 274.65 376.133 274.079 375.704 273.659C375.275 273.239 374.699 273.002 374.099 273H355.444C354.836 273.003 354.254 273.246 353.825 273.677C353.396 274.108 353.156 274.692 353.156 275.3V275.3C353.169 275.9 353.415 276.47 353.843 276.891C354.27 277.311 354.845 277.548 355.444 277.55V277.55Z" fill="#F5F5F5"/>
<path d="M393.674 216.63C393.212 216.63 392.768 216.447 392.441 216.121C392.113 215.795 391.928 215.352 391.925 214.89V161.81C391.928 161.347 392.113 160.903 392.44 160.575C392.767 160.248 393.211 160.063 393.674 160.06V160.06C394.135 160.065 394.576 160.252 394.901 160.579C395.226 160.906 395.41 161.348 395.412 161.81V214.89C395.41 215.351 395.226 215.792 394.9 216.117C394.575 216.443 394.134 216.627 393.674 216.63V216.63Z" fill="#EBEBEB"/>
<path d="M410.001 214.57H377.337V218.69H410.001V214.57Z" fill="#F0F0F0"/>
<path d="M402.717 191.85C402.486 191.85 402.265 191.758 402.102 191.595C401.939 191.432 401.847 191.211 401.847 190.98V164.44C401.847 164.208 401.939 163.986 402.101 163.821C402.264 163.656 402.485 163.563 402.717 163.56V163.56C402.948 163.563 403.169 163.656 403.332 163.821C403.495 163.986 403.586 164.208 403.586 164.44V191C403.581 191.227 403.487 191.443 403.324 191.602C403.162 191.761 402.944 191.85 402.717 191.85V191.85Z" fill="#E0E0E0"/>
<path d="M368.274 173.62C368.274 173.62 368.923 154.1 393.674 154.1C418.424 154.1 419.064 173.62 419.064 173.62H368.274Z" fill="#E6E6E6"/>
<path d="M250.197 372.56C357.195 372.56 443.934 367.492 443.934 361.24C443.934 354.988 357.195 349.92 250.197 349.92C143.198 349.92 56.4592 354.988 56.4592 361.24C56.4592 367.492 143.198 372.56 250.197 372.56Z" fill="#F5F5F5"/>
<path d="M233.87 89.06C233.92 86.94 235.868 84.17 243.722 83.67C251.576 83.17 254.493 83.53 257.711 89.67C261.208 96.28 265.205 103.67 262.597 110.44C259.989 117.21 251.765 121.2 245.88 124.78C239.995 128.36 231.232 140.39 231.232 140.39C231.232 140.39 214.894 95 233.87 89.06Z" fill="#263238"/>
<path d="M237.457 179.63C237.457 179.63 249.357 240.77 253.584 265.63C257.971 291.48 261.668 347.1 261.668 347.1H268.282C268.282 347.1 276.706 299.1 268.282 263.45C268.852 234.99 263.286 175.8 263.286 175.8L237.457 179.63Z" fill="#FF8B7B"/>
<path d="M246.13 178.34C246.13 178.34 272.229 242.28 281.322 265.79C294.072 282.89 326.117 319.16 327.876 319.89L330.194 314.66C330.194 314.66 310.609 276.33 294.822 257.39C290.625 229.24 270.631 174.71 270.631 174.71L246.13 178.34Z" fill="#FF8B7B"/>
<path d="M233.84 139.86C231.961 142.06 230.033 144.16 228.104 146.3C226.176 148.44 224.187 150.5 222.199 152.58C220.21 154.66 218.202 156.73 216.123 158.74C214.045 160.75 211.957 162.74 209.768 164.74L210.098 164.39C209.629 164.93 209.084 165.398 208.48 165.78C207.985 166.079 207.463 166.33 206.921 166.53C206.05 166.844 205.144 167.049 204.223 167.14C202.704 167.29 201.175 167.29 199.656 167.14C196.921 166.878 194.208 166.41 191.543 165.74C188.945 165.1 186.407 164.35 183.889 163.54C181.371 162.73 178.893 161.83 176.465 160.79C175.952 160.574 175.546 160.163 175.336 159.647C175.126 159.131 175.13 158.553 175.346 158.04C175.531 157.59 175.869 157.219 176.3 156.992C176.731 156.766 177.228 156.698 177.704 156.8V156.8C180.172 157.32 182.7 157.85 185.198 158.3C187.696 158.75 190.194 159.19 192.682 159.5C195.086 159.843 197.509 160.033 199.936 160.07C201.004 160.091 202.072 160.008 203.124 159.82C203.486 159.753 203.841 159.649 204.183 159.51C204.247 159.487 204.305 159.449 204.353 159.4C204.353 159.4 204.283 159.4 204.193 159.52L204.523 159.17C206.521 157.17 208.42 155.17 210.338 153.12L216.074 146.87L227.465 134.26C228.203 133.418 229.245 132.904 230.362 132.831C231.478 132.757 232.578 133.131 233.42 133.87C234.261 134.609 234.775 135.651 234.848 136.769C234.921 137.887 234.548 138.988 233.81 139.83L233.84 139.86Z" fill="#FF8B7B"/>
<path d="M179.382 157.37L175.256 150.14L172.358 158C172.358 158 175.865 162 179.203 161.21L179.382 157.37Z" fill="#FF8B7B"/>
<path d="M170.02 150.35L169.021 153.72C168.907 154.097 168.907 154.499 169.02 154.877C169.134 155.254 169.357 155.589 169.66 155.84L172.368 158.04L175.226 150.14L172.688 149.14C172.434 149.034 172.161 148.981 171.887 148.985C171.612 148.989 171.341 149.049 171.09 149.163C170.84 149.276 170.615 149.44 170.431 149.645C170.247 149.849 170.107 150.089 170.02 150.35V150.35Z" fill="#FF8B7B"/>
<path d="M233.919 129.77C228.044 128.77 225.446 132.87 222.638 135.96C223.308 141.42 232.93 152.62 232.93 152.62C232.93 152.62 244.601 131.51 233.919 129.77Z" fill="#00C35A"/>
<path d="M226.106 136.47C226.855 142.42 229.693 159.12 237.647 184.12L272.329 179C269.931 166.42 266.624 154.53 268.153 129.48C268.195 128.789 268.095 128.097 267.86 127.446C267.624 126.795 267.257 126.2 266.782 125.696C266.308 125.193 265.735 124.792 265.099 124.52C264.463 124.247 263.778 124.107 263.087 124.11C260.738 124.11 257.841 124.21 254.823 124.51C249.754 124.897 244.719 125.642 239.755 126.74C236.557 127.52 233.17 128.56 230.592 129.4C229.142 129.877 227.903 130.842 227.085 132.132C226.267 133.421 225.921 134.954 226.106 136.47V136.47Z" fill="#00C35A"/>
<path d="M239.755 126.72L254.823 124.49C254.823 124.49 254.134 130.28 244.641 137.89C237.427 131.19 239.755 126.72 239.755 126.72Z" fill="white"/>
<path d="M250.826 107.73C250.586 112.73 250.956 121.73 254.823 124.49C252.389 128.437 249.058 131.754 245.101 134.17C243.607 133.547 242.315 132.52 241.371 131.204C240.427 129.888 239.868 128.336 239.755 126.72C244.971 124.63 244.241 120.64 242.753 117.01L250.826 107.73Z" fill="#FF8B7B"/>
<path opacity="0.2" d="M247.529 111.52L242.743 117C243.107 117.842 243.394 118.716 243.602 119.61C245.6 119.01 248.128 116.32 248.028 114.12C248.022 113.23 247.853 112.349 247.529 111.52V111.52Z" fill="black"/>
<path d="M254.623 98.08C253.884 106.25 253.744 109.72 249.497 113.8C243.102 119.95 233.24 117.26 231.511 109.03C229.963 101.63 231.421 89.51 239.505 86.48C241.289 85.7967 243.219 85.5823 245.109 85.8573C247 86.1322 248.788 86.8873 250.304 88.0506C251.82 89.2138 253.013 90.7464 253.769 92.5022C254.525 94.2579 254.819 96.1782 254.623 98.08V98.08Z" fill="#FF8B7B"/>
<path d="M248.358 91.72C247.639 96.61 250.526 102.6 253.024 102.66C255.522 102.72 257.401 93.28 257.401 93.28L248.358 91.72Z" fill="#263238"/>
<path d="M234.479 89.22C239.805 93 255.632 98.67 255.962 93.78C256.292 88.89 249.687 84.94 244.801 84.94C239.915 84.94 235.978 86.89 234.479 89.22Z" fill="#263238"/>
<path opacity="0.2" d="M252.295 258.25L268.282 251.96C268.202 248.15 268.073 244.11 267.883 239.96L250.197 246.38C250.926 250.62 251.656 254.64 252.295 258.25Z" fill="black"/>
<path opacity="0.2" d="M289.166 232.15L270.681 238.89C272.139 242.51 273.548 246.03 274.867 249.35L291.854 242.64C291.035 239.25 290.165 235.73 289.166 232.15Z" fill="black"/>
<path d="M242.653 100.23C242.653 100.9 242.273 101.43 241.833 101.41C241.394 101.39 241.064 100.85 241.084 100.19C241.104 99.53 241.464 98.99 241.903 99C242.343 99.01 242.673 99.56 242.653 100.23Z" fill="#263238"/>
<path d="M235.125 100.016C235.144 99.3479 234.806 98.7963 234.371 98.7839C233.935 98.7715 233.566 99.303 233.547 99.9709C233.528 100.639 233.866 101.191 234.302 101.203C234.738 101.215 235.106 100.684 235.125 100.016Z" fill="#263238"/>
<path d="M234.569 98.83L232.98 98.32C232.98 98.32 233.77 99.6 234.569 98.83Z" fill="#263238"/>
<path d="M237.087 101.22C236.451 102.722 235.61 104.129 234.589 105.4C234.922 105.654 235.307 105.832 235.716 105.922C236.125 106.012 236.548 106.011 236.957 105.92L237.087 101.22Z" fill="#FF5652"/>
<path d="M239.315 108.4C238.945 108.455 238.57 108.478 238.196 108.47C238.146 108.465 238.099 108.442 238.064 108.406C238.029 108.369 238.008 108.321 238.006 108.27C238.006 108.244 238.011 108.219 238.022 108.195C238.032 108.171 238.047 108.15 238.065 108.132C238.084 108.114 238.106 108.1 238.13 108.091C238.155 108.083 238.18 108.079 238.206 108.08C239.033 108.122 239.859 107.968 240.616 107.631C241.373 107.294 242.04 106.783 242.563 106.14C242.577 106.119 242.596 106.101 242.617 106.087C242.638 106.073 242.662 106.064 242.687 106.059C242.712 106.054 242.738 106.055 242.763 106.06C242.788 106.065 242.811 106.076 242.832 106.09C242.853 106.104 242.871 106.123 242.885 106.144C242.899 106.166 242.909 106.19 242.913 106.215C242.918 106.24 242.918 106.265 242.912 106.29C242.907 106.315 242.897 106.339 242.882 106.36C242.006 107.481 240.725 108.213 239.315 108.4V108.4Z" fill="#263238"/>
<path d="M256.382 102.41C256.191 103.173 255.851 103.89 255.381 104.52C254.911 105.15 254.321 105.68 253.644 106.08C251.835 107.14 250.397 105.65 250.456 103.66C250.506 101.87 251.516 99.16 253.554 98.91C253.999 98.8627 254.448 98.9275 254.861 99.0987C255.275 99.2699 255.638 99.5419 255.92 99.8899C256.201 100.238 256.39 100.651 256.471 101.091C256.552 101.531 256.521 101.985 256.382 102.41V102.41Z" fill="#FF8B7B"/>
<path d="M245.45 96.79C245.398 96.7964 245.344 96.7908 245.294 96.7734C245.244 96.7561 245.198 96.7276 245.161 96.69C244.811 96.343 244.384 96.0841 243.915 95.9346C243.446 95.7851 242.948 95.7492 242.463 95.83C242.368 95.8374 242.273 95.8104 242.196 95.754C242.119 95.6975 242.064 95.6153 242.043 95.5222C242.021 95.4292 242.033 95.3314 242.077 95.2466C242.121 95.1618 242.194 95.0956 242.283 95.06C242.894 94.9548 243.522 94.9961 244.114 95.1803C244.706 95.3646 245.246 95.6866 245.69 96.12C245.727 96.1555 245.757 96.1981 245.777 96.2454C245.797 96.2927 245.808 96.3436 245.808 96.395C245.808 96.4464 245.797 96.4973 245.777 96.5446C245.757 96.5918 245.727 96.6345 245.69 96.67C245.66 96.7048 245.623 96.7333 245.582 96.7539C245.541 96.7745 245.496 96.7867 245.45 96.79V96.79Z" fill="#263238"/>
<path d="M233.21 96.16C233.161 96.1513 233.115 96.1326 233.073 96.1051C233.032 96.0775 232.997 96.0418 232.97 96C232.94 95.9584 232.919 95.9111 232.908 95.861C232.897 95.8109 232.896 95.7591 232.905 95.7086C232.914 95.6582 232.934 95.6101 232.962 95.5674C232.99 95.5247 233.027 95.4881 233.07 95.46C233.572 95.0939 234.154 94.8537 234.768 94.7597C235.382 94.6658 236.009 94.7207 236.597 94.92C236.693 94.9598 236.768 95.0358 236.808 95.1315C236.847 95.2271 236.847 95.3345 236.807 95.43C236.788 95.4781 236.76 95.5221 236.725 95.5593C236.689 95.5965 236.646 95.6262 236.598 95.6467C236.551 95.6671 236.5 95.678 236.448 95.6785C236.397 95.6791 236.345 95.6694 236.298 95.65C235.831 95.496 235.334 95.4566 234.849 95.5349C234.364 95.6132 233.904 95.807 233.51 96.1C233.422 96.159 233.314 96.1805 233.21 96.16V96.16Z" fill="#263238"/>
<path d="M242.093 99L240.504 98.5C240.504 98.5 241.294 99.81 242.093 99Z" fill="#263238"/>
<path d="M237.647 184.12L249.247 252.78L292.683 239.89C289.166 203.6 280.173 185.63 272.329 179L237.647 184.12Z" fill="#263238"/>
<path opacity="0.2" d="M255.243 222.7L263.926 208.42L262.437 198.37L255.243 222.7Z" fill="black"/>
<path d="M267.713 127.54C268.452 128.2 269.362 128.96 270.201 129.66C271.04 130.36 271.95 131.08 272.849 131.76C274.637 133.11 276.436 134.44 278.305 135.64C281.858 138.047 285.747 139.918 289.845 141.19C290.085 141.27 290.335 141.31 290.575 141.37L290.935 141.46C291.045 141.46 290.935 141.46 290.935 141.46H290.795C290.395 141.46 290.245 141.64 290.355 141.6C290.929 141.213 291.421 140.717 291.804 140.14C293.022 138.39 294.073 136.528 294.941 134.58C295.941 132.58 296.82 130.43 297.649 128.27C298.479 126.11 299.328 123.92 300.107 121.76C300.28 121.266 300.629 120.855 301.089 120.606C301.548 120.357 302.083 120.288 302.59 120.413C303.098 120.538 303.54 120.848 303.831 121.282C304.122 121.716 304.241 122.243 304.164 122.76C303.483 127.592 302.386 132.356 300.887 137C300.094 139.483 299.035 141.874 297.729 144.13C296.896 145.588 295.774 146.861 294.432 147.87C293.332 148.648 292.022 149.073 290.675 149.09C290.479 149.105 290.282 149.105 290.085 149.09L289.616 149.03L289.106 148.94C288.776 148.88 288.427 148.84 288.107 148.76C285.53 148.215 283.017 147.397 280.613 146.32C278.29 145.3 276.043 144.117 273.888 142.78C271.755 141.489 269.69 140.087 267.703 138.58C266.71 137.833 265.741 137.063 264.795 136.27C263.796 135.46 262.937 134.69 261.937 133.74C261.174 132.967 260.738 131.929 260.719 130.843C260.699 129.756 261.098 128.704 261.833 127.904C262.568 127.104 263.583 126.618 264.666 126.547C265.75 126.475 266.819 126.824 267.653 127.52L267.713 127.54Z" fill="#FF8B7B"/>
<path d="M262.707 124.09C268.702 123.74 270.98 126.86 273.448 130.22C272.229 135.58 265.734 144.75 265.734 144.75C265.734 144.75 251.905 124.73 262.707 124.09Z" fill="#00C35A"/>
<path d="M299.798 122.25L301.296 113.44L306.722 119.86C306.722 119.86 304.824 124.86 301.416 125.25L299.798 122.25Z" fill="#FF8B7B"/>
<path d="M306.253 111.05L309.51 113.91C309.797 114.163 309.981 114.513 310.027 114.892C310.073 115.272 309.978 115.656 309.76 115.97L306.153 121.08L301.306 113.44L304.304 111.02C304.582 110.799 304.929 110.682 305.284 110.687C305.639 110.692 305.981 110.821 306.253 111.05V111.05Z" fill="#FF8B7B"/>
<path d="M249.118 359.61C250.131 358.872 251.258 358.304 252.455 357.93V357.93C252.455 357.93 258.37 354.58 261.448 344.53L268.292 342.82C268.462 342.778 268.64 342.772 268.812 342.803C268.984 342.834 269.148 342.902 269.293 343.001C269.437 343.1 269.559 343.229 269.65 343.379C269.741 343.529 269.8 343.696 269.821 343.87C269.881 344.41 269.921 345.03 269.991 345.53C270.066 346.619 270.066 347.711 269.991 348.8C269.931 352.19 269.551 359.8 269.551 359.8H268.762C268.757 357.484 268.617 355.17 268.342 352.87C267.943 350.63 266.344 353.28 265.485 355.81C264.625 358.34 261.038 361.05 255.862 361.17C249.817 361.35 247.359 361.08 249.118 359.61Z" fill="#263238"/>
<path d="M325.417 336C325.612 334.761 326.007 333.562 326.587 332.45V332.45C326.587 332.45 328.395 325.89 323.459 316.61L327.076 310.56C327.164 310.408 327.284 310.277 327.427 310.176C327.57 310.074 327.734 310.005 327.906 309.971C328.078 309.938 328.256 309.942 328.426 309.984C328.597 310.025 328.756 310.102 328.895 310.21C329.324 310.55 329.794 310.96 330.194 311.21C331.015 311.929 331.79 312.701 332.512 313.52C334.87 315.96 340.006 321.62 340.006 321.62L339.446 322.19C337.805 320.553 336.067 319.017 334.24 317.59C332.382 316.29 333.141 319.28 334.31 321.69C335.48 324.1 334.87 328.54 331.313 332.29C327.136 336.75 325.218 338.3 325.417 336Z" fill="#263238"/>
<path opacity="0.9" d="M299.078 48.44L193.721 38.33C191.128 38.0929 188.546 38.8911 186.537 40.5506C184.529 42.2101 183.258 44.5965 183 47.19L167.902 205C167.656 207.596 168.45 210.183 170.107 212.194C171.765 214.205 174.152 215.477 176.745 215.73L282.092 225.84C284.686 226.08 287.269 225.283 289.278 223.623C291.287 221.963 292.558 219.575 292.813 216.98L307.921 59.22C308.048 57.931 307.92 56.6296 307.544 55.3902C307.169 54.1508 306.553 52.9976 305.731 51.9965C304.91 50.9954 303.9 50.1661 302.758 49.5558C301.617 48.9456 300.366 48.5664 299.078 48.44V48.44ZM276.526 108.86C275.797 116.395 272.727 123.512 267.749 129.211C262.771 134.911 256.133 138.907 248.769 140.637C241.406 142.368 233.685 141.747 226.692 138.861C219.699 135.975 213.785 130.969 209.781 124.547C205.776 118.124 203.882 110.608 204.366 103.053C204.849 95.4983 207.684 88.2848 212.474 82.4256C217.264 76.5665 223.767 72.356 231.071 70.3857C238.374 68.4153 246.111 68.784 253.194 71.44C256.026 72.5 258.712 73.9146 261.188 75.65C266.464 79.3215 270.667 84.3337 273.365 90.1708C276.062 96.0079 277.157 102.459 276.536 108.86H276.526Z" fill="white"/>
<path d="M245.83 9.80999L257.241 12C258.642 12.2958 259.885 13.0975 260.733 14.2522C261.581 15.4069 261.974 16.8336 261.838 18.26L259.629 38.38C259.601 38.6436 259.55 38.9045 259.479 39.16C259.173 40.3537 258.421 41.3843 257.378 42.0393C256.335 42.6943 255.081 42.9236 253.874 42.68L242.463 40.53C241.185 40.2581 240.035 39.5657 239.197 38.5634C238.358 37.5611 237.879 36.3065 237.836 35C237.812 34.7339 237.812 34.4661 237.836 34.2L240.045 14.08C240.109 13.4042 240.315 12.7497 240.649 12.159C240.984 11.5683 241.439 11.0548 241.985 10.6519C242.53 10.249 243.155 9.96578 243.818 9.82072C244.48 9.67565 245.166 9.67199 245.83 9.80999V9.80999ZM250.596 19.41C250.068 19.3039 249.523 19.3103 248.998 19.4289C248.472 19.5475 247.977 19.7755 247.546 20.0981C247.114 20.4207 246.755 20.8307 246.492 21.3014C246.229 21.7721 246.068 22.2929 246.02 22.83C245.902 23.9688 246.211 25.1107 246.887 26.0346C247.562 26.9584 248.557 27.5982 249.677 27.83C250.206 27.9377 250.751 27.9325 251.277 27.8146C251.803 27.6967 252.299 27.4688 252.731 27.1459C253.163 26.823 253.522 26.4123 253.784 25.9408C254.047 25.4693 254.207 24.9477 254.253 24.41C254.369 23.2716 254.059 22.1308 253.384 21.2075C252.709 20.2842 251.716 19.6439 250.596 19.41V19.41Z" fill="#263238"/>
<path d="M280.992 52.43C280.76 52.43 280.533 52.3643 280.337 52.2404C280.141 52.1165 279.983 51.9396 279.883 51.73L275.477 42.62C275.179 41.9997 274.727 41.4666 274.163 41.0725C273.599 40.6783 272.944 40.4364 272.259 40.37L221.579 35.51C220.895 35.444 220.206 35.5557 219.577 35.8342C218.949 36.1127 218.403 36.5487 217.992 37.1L211.937 45.22C211.84 45.3513 211.719 45.4623 211.58 45.5467C211.44 45.6311 211.286 45.6872 211.125 45.7118C210.964 45.7364 210.8 45.7291 210.641 45.6901C210.483 45.6512 210.334 45.5815 210.203 45.485C210.072 45.3885 209.961 45.267 209.877 45.1276C209.792 44.9882 209.736 44.8335 209.712 44.6724C209.687 44.5113 209.695 44.3469 209.733 44.1886C209.772 44.0304 209.842 43.8813 209.938 43.75L215.994 35.63C216.66 34.7425 217.543 34.0405 218.557 33.5907C219.572 33.1409 220.684 32.9582 221.789 33.06L272.459 37.92C273.564 38.0318 274.622 38.4239 275.533 39.0591C276.444 39.6943 277.178 40.5516 277.665 41.55L282.062 50.66C282.153 50.8471 282.195 51.0544 282.185 51.2624C282.174 51.4704 282.111 51.6723 282.001 51.8492C281.891 52.0261 281.738 52.1722 281.557 52.2738C281.375 52.3754 281.171 52.4291 280.962 52.43H280.992Z" fill="#00C35A"/>
<path d="M177.254 80.54L176.445 80.46L177.004 74.59L177.824 74.67L177.254 80.54ZM178.253 69.18L177.444 69.1L178.713 55.8L179.532 55.88L178.253 69.18Z" fill="#00C35A"/>
<path d="M283.041 226.24C282.707 226.244 282.373 226.227 282.042 226.19L176.695 216.09C173.993 215.827 171.506 214.502 169.779 212.406C168.052 210.31 167.226 207.614 167.482 204.91L182.58 47.15C182.846 44.4472 184.17 41.9598 186.264 40.2319C188.357 38.504 191.049 37.6763 193.751 37.93L299.158 48C301.861 48.2633 304.349 49.5878 306.077 51.6833C307.806 53.7788 308.634 56.4745 308.381 59.18L293.223 217C292.973 219.532 291.794 221.882 289.913 223.594C288.032 225.307 285.583 226.26 283.041 226.27V226.24ZM192.782 38.7C190.441 38.7062 188.186 39.5824 186.454 41.1585C184.722 42.7347 183.637 44.8984 183.409 47.23L168.261 205C168.035 207.488 168.8 209.964 170.388 211.891C171.977 213.818 174.261 215.039 176.745 215.29L282.172 225.38C284.657 225.611 287.134 224.848 289.059 223.257C290.983 221.666 292.201 219.377 292.443 216.89L307.552 59.13C307.78 56.6432 307.018 54.1668 305.431 52.2396C303.844 50.3124 301.561 49.0906 299.078 48.84L193.681 38.74C193.381 38.71 193.082 38.7 192.782 38.7ZM240.524 142.08C239.345 142.08 238.156 142.02 236.967 141.91C231.776 141.409 226.752 139.804 222.23 137.203C217.709 134.603 213.794 131.066 210.747 126.83C207.701 122.594 205.593 117.756 204.565 112.639C203.537 107.522 203.612 102.245 204.785 97.1592C205.959 92.0738 208.203 87.2976 211.369 83.15C214.535 79.0024 218.549 75.5788 223.143 73.1082C227.736 70.6376 232.804 69.1769 238.007 68.8237C243.211 68.4705 248.429 69.2329 253.314 71.06C256.183 72.1281 258.903 73.5598 261.408 75.32C266.742 79.0333 270.992 84.1013 273.721 90.0029C276.45 95.9046 277.56 102.427 276.936 108.9C276.069 117.969 271.861 126.391 265.13 132.524C258.399 138.658 249.627 142.064 240.524 142.08V142.08ZM240.434 69.55C233.496 69.5546 226.709 71.5755 220.896 75.3673C215.084 79.1591 210.497 84.5586 207.693 90.9098C204.888 97.261 203.987 104.291 205.099 111.144C206.211 117.998 209.287 124.382 213.955 129.519C218.623 134.656 224.681 138.326 231.394 140.083C238.106 141.84 245.184 141.609 251.767 139.416C258.351 137.224 264.156 133.166 268.479 127.734C272.801 122.303 275.454 115.732 276.116 108.82V108.82C276.725 102.494 275.64 96.1189 272.973 90.3509C270.305 84.583 266.151 79.6297 260.938 76C258.491 74.2769 255.831 72.8786 253.024 71.84C250.084 70.7327 247.009 70.0231 243.882 69.73C242.723 69.61 241.573 69.55 240.434 69.55V69.55Z" fill="#00C35A"/>
<path opacity="0.8" d="M253.194 71.44C246.51 68.9393 239.238 68.4689 232.288 70.0877C225.338 71.7066 219.02 75.3427 214.127 80.5401C209.233 85.7376 205.982 92.2651 204.78 99.3043C203.578 106.344 204.479 113.581 207.37 120.11L173.397 148.19L183.07 47.19C183.328 44.5965 184.599 42.2101 186.607 40.5506C188.616 38.8911 191.198 38.0929 193.791 38.33L228.704 41.68L239.875 55.24L253.194 71.44Z" fill="#00C35A"/>
<path opacity="0.5" d="M307.921 59.17L301.157 129.66L276.176 99.37C275.372 94.6198 273.633 90.0768 271.06 86.0049C268.487 81.9329 265.132 78.4132 261.188 75.65L294.642 48L299.078 48.43C301.672 48.6856 304.059 49.9593 305.716 51.9722C307.373 53.9852 308.166 56.5733 307.921 59.17Z" fill="#00C35A"/>
<path d="M294.642 48L261.188 75.65C258.712 73.9146 256.026 72.5 253.194 71.44L239.835 55.24L228.634 41.68L294.642 48Z" fill="#00C35A"/>
<path opacity="0.5" d="M267.089 156.971L204.564 150.979C203.515 150.879 202.583 151.649 202.483 152.699L202.17 155.964C202.07 157.014 202.839 157.946 203.888 158.047L266.413 164.039C267.462 164.14 268.394 163.37 268.494 162.32L268.807 159.055C268.907 158.005 268.138 157.072 267.089 156.971Z" fill="#00C35A"/>
<path opacity="0.5" d="M260.979 169.218L208.242 164.164C207.193 164.064 206.261 164.833 206.16 165.883L205.848 169.148C205.748 170.198 206.517 171.131 207.566 171.232L260.303 176.286C261.352 176.386 262.284 175.617 262.385 174.567L262.697 171.302C262.798 170.252 262.028 169.319 260.979 169.218Z" fill="#00C35A"/>
<path opacity="0.5" d="M199.721 195.917L184.045 194.414L183.8 196.983L199.475 198.485L199.721 195.917Z" fill="#00C35A"/>
<path opacity="0.5" d="M215.893 197.471L203.251 196.26L203.005 198.828L215.647 200.039L215.893 197.471Z" fill="#00C35A"/>
<path opacity="0.5" d="M219.828 203.678L183.493 200.196L183.247 202.764L219.582 206.247L219.828 203.678Z" fill="#00C35A"/>
<path opacity="0.5" d="M227.096 194.906L184.28 190.621L184.022 193.201L226.838 197.486L227.096 194.906Z" fill="#00C35A"/>
<path d="M256.192 11.53L244.601 9.42C243.911 9.29766 243.203 9.31262 242.519 9.46404C241.834 9.61545 241.186 9.90037 240.612 10.3025C240.038 10.7046 239.548 11.216 239.171 11.8076C238.794 12.3991 238.538 13.0592 238.416 13.75L234.799 33.9C234.746 34.1633 234.723 34.4316 234.729 34.7C234.688 35.9791 235.106 37.2307 235.907 38.2285C236.707 39.2262 237.839 39.9043 239.095 40.14L250.656 42.25C251.915 42.4774 253.214 42.2438 254.314 41.592C255.415 40.9401 256.245 39.9136 256.652 38.7C256.747 38.4476 256.817 38.1863 256.861 37.92L260.469 17.77C260.72 16.3759 260.412 14.9387 259.612 13.7704C258.811 12.6021 257.582 11.7971 256.192 11.53ZM248.848 19C249.682 19.1427 250.454 19.5303 251.068 20.1135C251.681 20.6967 252.107 21.4492 252.292 22.2754C252.477 23.1016 252.412 23.9641 252.106 24.7534C251.8 25.5427 251.267 26.2232 250.573 26.7084C249.88 27.1935 249.058 27.4614 248.212 27.4781C247.367 27.4947 246.535 27.2594 245.823 26.8019C245.111 26.3444 244.551 25.6855 244.215 24.9088C243.878 24.1321 243.779 23.2728 243.932 22.44C244.136 21.3358 244.766 20.3563 245.686 19.7128C246.606 19.0692 247.741 18.8132 248.848 19V19Z" fill="#263238"/>
<path opacity="0.2" d="M256.192 11.53L244.601 9.42C243.911 9.29766 243.203 9.31262 242.519 9.46404C241.834 9.61545 241.186 9.90037 240.612 10.3025C240.038 10.7046 239.548 11.216 239.171 11.8076C238.794 12.3991 238.538 13.0592 238.416 13.75L234.799 33.9C234.746 34.1633 234.723 34.4316 234.729 34.7C234.688 35.9791 235.106 37.2307 235.907 38.2285C236.707 39.2262 237.839 39.9043 239.095 40.14L250.656 42.25C251.915 42.4774 253.214 42.2438 254.314 41.592C255.415 40.9401 256.245 39.9136 256.652 38.7C256.747 38.4476 256.817 38.1863 256.861 37.92L260.469 17.77C260.72 16.3759 260.412 14.9387 259.612 13.7704C258.811 12.6021 257.582 11.7971 256.192 11.53ZM248.848 19C249.682 19.1427 250.454 19.5303 251.068 20.1135C251.681 20.6967 252.107 21.4492 252.292 22.2754C252.477 23.1016 252.412 23.9641 252.106 24.7534C251.8 25.5427 251.267 26.2232 250.573 26.7084C249.88 27.1935 249.058 27.4614 248.212 27.4781C247.367 27.4947 246.535 27.2594 245.823 26.8019C245.111 26.3444 244.551 25.6855 244.215 24.9088C243.878 24.1321 243.779 23.2728 243.932 22.44C244.136 21.3358 244.766 20.3563 245.686 19.7128C246.606 19.0692 247.741 18.8132 248.848 19V19Z" fill="white"/>
<path opacity="0.2" d="M277.746 209.727C280.764 207.235 281.191 202.766 278.701 199.746C276.211 196.726 271.745 196.298 268.728 198.791C265.71 201.283 265.282 205.751 267.773 208.772C270.263 211.792 274.728 212.22 277.746 209.727Z" fill="#00C35A"/>
<path opacity="0.8" d="M258.988 207.926C262.006 205.434 262.433 200.965 259.943 197.945C257.453 194.925 252.987 194.497 249.97 196.989C246.952 199.481 246.524 203.95 249.015 206.97C251.505 209.99 255.97 210.418 258.988 207.926Z" fill="#00C35A"/>
</svg>
